<?xml version="1.0" standalone="no"?>
<!DOCTYPE svg PUBLIC "-//W3C//DTD SVG 20010904//EN"
 "http://www.w3.org/TR/2001/REC-SVG-20010904/DTD/svg10.dtd">
<svg version="1.0" xmlns="http://www.w3.org/2000/svg"
 width="1024.000000pt" height="1024.000000pt" viewBox="0 0 1024.000000 1024.000000"
 preserveAspectRatio="xMidYMid meet">
<metadata>
Created by potrace 1.11, written by Peter Selinger 2001-2013
</metadata>
<g transform="translate(0.000000,1024.000000) scale(0.100000,-0.100000)"
fill="#000000" stroke="none">
<path d="M4869 9896 c-2 -2 -49 -6 -104 -10 -55 -3 -111 -8 -125 -10 -14 -3
-52 -7 -85 -10 -33 -3 -69 -8 -80 -10 -11 -2 -42 -7 -70 -11 -79 -11 -88 -13
-125 -20 -784 -143 -1537 -488 -2150 -984 -799 -647 -1363 -1512 -1630 -2501
-66 -246 -115 -494 -135 -685 -3 -33 -8 -73 -10 -90 -11 -96 -19 -262 -19
-420 0 -192 7 -319 29 -550 11 -114 12 -118 19 -165 4 -25 9 -57 12 -72 4 -31
12 -72 18 -103 2 -11 7 -40 11 -65 4 -25 16 -83 27 -130 26 -111 25 -106 43
-175 8 -33 18 -71 21 -85 3 -14 36 -117 74 -230 138 -414 315 -773 563 -1145
74 -110 224 -313 279 -376 13 -15 32 -38 43 -52 45 -56 176 -197 272 -294 57
-56 103 -107 103 -112 0 -6 9 -16 20 -24 11 -8 40 -32 63 -53 258 -238 724
-561 977 -677 278 -127 468 -208 617 -262 79 -28 284 -93 316 -99 12 -3 38
-10 57 -16 19 -6 67 -18 105 -26 39 -9 77 -17 85 -19 46 -12 162 -35 196 -40
21 -3 48 -8 60 -10 12 -3 39 -7 60 -10 21 -3 48 -7 59 -10 11 -2 49 -7 85 -10
36 -4 76 -8 90 -11 163 -26 753 -26 1000 0 25 3 70 8 100 11 30 3 62 8 70 10
8 2 35 6 60 9 25 3 56 8 70 11 14 3 43 8 65 11 22 3 47 7 55 10 8 3 38 10 65
15 28 6 60 12 73 15 49 10 181 44 267 69 50 14 97 27 105 29 25 6 283 97 315
111 17 7 82 35 145 61 140 57 418 198 560 284 92 55 287 180 315 203 6 4 61
45 123 92 200 150 339 271 536 470 186 188 382 425 539 653 31 45 57 86 57 91
0 5 4 11 9 13 26 10 287 487 360 658 175 408 283 768 346 1148 3 17 7 44 9 60
3 15 10 68 16 117 6 50 13 101 15 113 13 79 20 274 20 527 -1 267 -5 366 -19
486 -17 136 -36 277 -41 299 -3 14 -8 43 -10 64 -3 21 -7 42 -9 45 -3 4 -7 26
-11 51 -4 25 -8 47 -10 51 -2 3 -7 21 -10 40 -3 19 -10 52 -16 74 -5 22 -11
48 -14 57 -17 75 -97 342 -114 383 -5 11 -23 61 -41 110 -66 182 -210 498
-284 625 -8 14 -41 70 -72 125 -345 601 -879 1170 -1471 1563 -226 151 -518
313 -723 401 -30 13 -73 32 -95 42 -82 36 -371 141 -395 144 -3 0 -10 3 -16 7
-6 4 -21 9 -35 12 -13 3 -80 20 -149 39 -116 33 -148 40 -208 52 -13 2 -31 6
-40 9 -9 3 -30 8 -47 11 -143 26 -204 37 -230 40 -16 2 -48 7 -70 10 -73 12
-89 14 -170 21 -44 3 -89 8 -100 11 -24 6 -660 15 -666 9z"/>
</g>
</svg>
